<svg width="176" height="111" viewBox="0 0 176 111" fill="none" xmlns="http://www.w3.org/2000/svg">
<path d="M170.709 80.3594C168.886 88.1068 167.177 95.2845 165.582 101.893L161.822 116.932C161.594 118.071 161.253 118.868 160.797 119.324C160.341 119.78 159.544 120.008 158.404 120.008H153.277C152.366 120.008 151.682 119.894 151.227 119.666C150.771 119.21 150.315 118.413 149.859 117.273L136.529 72.8398C135.846 70.5612 135.618 69.194 135.846 68.7383C136.301 68.2826 137.441 68.1686 139.264 68.3965H143.365C144.96 68.3965 145.986 69.194 146.441 70.7891L156.012 107.703H156.354L164.898 72.1562C165.354 70.5612 165.924 69.5358 166.607 69.0801C167.519 68.6243 168.886 68.3965 170.709 68.3965H173.443C174.583 68.3965 175.38 68.6243 175.836 69.0801C176.292 69.3079 176.633 69.9915 176.861 71.1309L180.621 87.1953C183.811 100.411 185.634 107.589 186.09 108.729L195.66 71.4727C196.116 70.1055 196.572 69.3079 197.027 69.0801C197.711 68.6243 198.736 68.3965 200.104 68.3965H204.205C205.117 68.3965 205.686 68.6243 205.914 69.0801C206.37 69.3079 206.484 69.8776 206.256 70.7891L192.242 116.248C191.559 117.843 190.989 118.868 190.533 119.324C190.077 119.552 188.938 119.666 187.115 119.666H183.697C182.33 119.666 181.419 119.552 180.963 119.324C180.507 118.868 180.165 118.071 179.938 116.932L170.709 80.3594ZM124.225 118.299C125.136 119.438 125.934 120.122 126.617 120.35C127.301 120.35 128.098 120.008 129.01 119.324L131.402 117.615C132.542 116.932 133.111 116.362 133.111 115.906C133.339 115.223 133.111 114.311 132.428 113.172C131.061 110.21 130.377 107.133 130.377 103.943V102.918C130.605 90.6133 130.491 83.3216 130.035 81.043C129.124 74.207 125.592 69.8776 119.439 68.0547C116.705 67.1432 112.831 66.8014 107.818 67.0293C103.033 67.0293 98.248 68.2826 93.4629 70.7891C92.7793 71.2448 92.3236 71.8145 92.0957 72.498C91.8678 73.8652 91.7539 75.1185 91.7539 76.2578C91.9818 77.3971 92.2096 78.1947 92.4375 78.6504C92.8932 78.8783 93.5768 78.7643 94.4883 78.3086L99.6152 76.5996C105.54 74.7767 110.667 74.5488 114.996 75.916C117.275 76.5996 118.87 78.1947 119.781 80.7012C120.237 82.2962 120.465 84.6888 120.465 87.8789V88.9043C120.465 89.8158 120.351 90.3854 120.123 90.6133C120.123 90.6133 119.667 90.4993 118.756 90.2715C112.604 89.1322 107.818 88.7904 104.4 89.2461C98.4759 90.1576 94.1465 92.4362 91.4121 96.082C88.6777 99.7279 87.7663 104.285 88.6777 109.754C89.8171 114.995 92.8932 118.413 97.9062 120.008C104.97 122.286 111.464 121.261 117.389 116.932L121.49 113.514L124.225 118.299ZM119.098 97.4492C120.237 97.4492 120.693 98.0189 120.465 99.1582V102.918C120.009 106.792 117.958 109.64 114.312 111.463C111.578 112.83 108.616 113.4 105.426 113.172C102.919 112.944 101.096 112.033 99.957 110.438C98.8177 108.615 98.362 106.564 98.5898 104.285C99.0456 99.9557 101.552 97.4492 106.109 96.7656C107.932 96.5378 109.299 96.4238 110.211 96.4238C111.35 96.4238 113.173 96.5378 115.68 96.7656L119.098 97.4492ZM238.385 119.666C242.031 118.071 244.765 115.792 246.588 112.83C248.411 109.868 248.98 106.45 248.297 102.576C247.613 97.791 244.765 94.373 239.752 92.3223L233.6 90.2715C228.814 88.6764 225.396 87.4232 223.346 86.5117C221.523 85.3724 220.611 83.8913 220.611 82.0684C220.611 78.4225 222.32 76.2578 225.738 75.5742C229.156 74.6628 232.46 74.5488 235.65 75.2324C236.79 75.4603 238.385 75.916 240.436 76.5996L242.828 77.2832C244.195 77.7389 245.107 77.625 245.562 76.9414C246.246 75.5742 246.246 74.0931 245.562 72.498C245.107 70.903 244.309 69.8776 243.17 69.4219C234.511 66.0039 226.65 65.776 219.586 68.7383C214.117 71.2448 211.155 75.2324 210.699 80.7012C210.243 87.0814 213.092 91.7526 219.244 94.7148C220.383 95.3984 222.092 96.082 224.371 96.7656L235.65 100.867C237.701 101.779 238.727 103.488 238.727 105.994C238.727 108.501 237.815 110.21 235.992 111.121C230.296 114.311 222.662 113.969 213.092 110.096L212.408 109.754C211.269 109.526 210.471 109.982 210.016 111.121C209.104 114.995 210.471 117.615 214.117 118.982C217.991 120.35 222.092 121.147 226.422 121.375C230.979 121.603 234.967 121.033 238.385 119.666ZM182.672 175.037C200.673 172.986 216.965 167.745 231.549 159.314C232.916 158.403 235.081 156.922 238.043 154.871L239.41 153.846C240.094 153.162 240.436 152.365 240.436 151.453C240.436 150.542 239.98 149.858 239.068 149.402C238.157 148.947 236.904 149.061 235.309 149.744C216.852 157.492 197.483 161.935 177.203 163.074C167.177 163.53 156.809 162.96 146.1 161.365C124.225 158.175 104.059 151.225 85.6016 140.516L85.2598 140.174C84.3483 139.718 83.5508 139.49 82.8672 139.49C82.1836 139.262 81.7279 139.604 81.5 140.516C81.2721 141.199 81.6139 141.883 82.5254 142.566C90.7285 150.314 99.7292 156.694 109.527 161.707C128.44 171.505 147.923 176.29 167.975 176.062L172.76 175.721C177.089 175.721 180.393 175.493 182.672 175.037ZM242.486 143.592C244.993 143.82 246.588 144.503 247.271 145.643C248.183 146.554 248.297 148.149 247.613 150.428C247.158 152.706 246.132 156.01 244.537 160.34L242.486 166.492C242.031 167.404 242.145 168.087 242.828 168.543C243.512 168.999 244.423 168.771 245.562 167.859L245.904 167.518C249.094 164.327 251.601 160.454 253.424 155.896C255.702 150.656 256.728 145.87 256.5 141.541C256.5 140.402 256.272 139.604 255.816 139.148C255.589 138.693 254.905 138.351 253.766 138.123C251.487 137.439 249.664 136.984 248.297 136.756C240.094 136.072 233.03 137.326 227.105 140.516C226.194 140.971 225.169 141.655 224.029 142.566C223.801 142.794 223.688 143.136 223.688 143.592C223.688 144.048 224.029 144.389 224.713 144.617L229.498 144.275C234.967 143.82 239.296 143.592 242.486 143.592Z" transform="translate(-81 -66)" fill="black"/>
</svg>
