<svg width="56" height="56" viewBox="0 0 56 56" fill="none" xmlns="http://www.w3.org/2000/svg">
<path d="M18.7419 45.0393C18.7419 45.348 18.5161 45.541 18.0645 45.6182C17.6881 45.6182 17.5 45.4638 17.5 45.1551C17.5 44.8463 17.6881 44.6919 18.0645 44.6919C18.2903 44.6919 18.4409 44.7306 18.5161 44.8077C18.6667 44.8849 18.7419 44.9621 18.7419 45.0393ZM15.2419 44.5761C15.1667 44.6533 15.1667 44.7691 15.2419 44.9235C15.3925 45.0007 15.543 45.0779 15.6935 45.1551C15.8441 45.2322 15.9946 45.2322 16.1452 45.1551C16.2957 45.0779 16.371 44.9621 16.371 44.8077C16.4462 44.5761 16.2957 44.4217 15.9194 44.3446C15.543 44.1902 15.3172 44.2674 15.2419 44.5761ZM20.2097 44.3446C19.8333 44.4217 19.6452 44.5761 19.6452 44.8077C19.7204 45.0393 19.7957 45.1937 19.871 45.2708C20.0215 45.2708 20.172 45.2708 20.3226 45.2708C20.699 45.1164 20.8494 44.9235 20.7742 44.6919C20.7742 44.4604 20.5861 44.3446 20.2097 44.3446ZM27.6613 0C22.4677 0 17.7635 1.23498 13.5484 3.70503C9.3333 6.17508 6.02154 9.5713 3.6129 13.8939C1.20427 18.2164 0 23.002 0 28.2509C0 34.6575 1.76879 40.408 5.30645 45.5024C8.84412 50.5197 13.4731 53.9931 19.1935 55.9228C19.7957 56.0772 20.2473 56 20.5484 55.6912C20.9248 55.3825 21.1129 54.9965 21.1129 54.5334L21 47.4707L19.7581 47.5865C18.7796 47.7409 17.8387 47.7794 16.9355 47.7023C15.6559 47.5479 14.5645 47.2005 13.6613 46.6602C12.6075 46.0427 11.8925 45.1551 11.5161 43.9972L11.0645 43.071C10.7635 42.3763 10.3871 41.7588 9.93548 41.2185C9.40863 40.5238 8.88169 40.022 8.35484 39.7133L7.79032 39.2502C7.41395 38.9414 7.22581 38.6713 7.22581 38.4397C7.30104 38.131 7.75266 37.9766 8.58065 37.9766L9.37097 38.0923C9.97315 38.3239 10.5377 38.5941 11.0645 38.9028C11.8172 39.4431 12.4194 40.1378 12.871 40.9869C13.9248 42.9166 15.4301 43.9586 17.3871 44.113C18.5914 44.2674 19.8333 44.0359 21.1129 43.4183C21.3387 41.7202 21.9409 40.408 22.9194 39.4817C20.2097 39.173 18.1774 38.787 16.8226 38.3239C14.7151 37.5521 13.1344 36.3556 12.0806 34.7347C10.8764 32.805 10.2742 30.1034 10.2742 26.6299C10.2742 25.1634 10.4623 23.9669 10.8387 23.0407C11.2903 22.0372 11.9677 20.9566 12.871 19.7988C12.5699 19.1041 12.4194 18.2164 12.4194 17.1358C12.2688 15.4377 12.5323 13.7395 13.2097 12.0413C13.8871 11.8098 14.9032 11.9642 16.2581 12.5045C17.2365 12.8904 18.328 13.4307 19.5323 14.1254L21 15.1675C23.2581 14.4728 25.5914 14.1254 28 14.1254C30.4839 14.1254 32.8925 14.4728 35.2258 15.1675L36.6936 14.1254C37.8978 13.4307 38.9516 12.8904 39.8548 12.5045C41.2097 11.9642 42.2635 11.8098 43.0161 12.0413C43.6183 13.7395 43.8817 15.4377 43.8064 17.1358C43.7312 18.2164 43.543 19.1427 43.2419 19.9145C44.2957 21.0724 45.0107 22.0372 45.3871 22.8091C45.9139 23.8898 46.1774 25.1634 46.1774 26.6299C46.1774 30.1034 45.5377 32.8435 44.2581 34.8504C43.129 36.3942 41.5107 37.5521 39.4032 38.3239C38.0484 38.787 35.9785 39.173 33.1936 39.4817C34.4731 40.5624 35.1129 42.3377 35.1129 44.8077V54.5334C35.1129 54.9965 35.2635 55.3825 35.5645 55.6912C35.9409 56 36.4301 56.0772 37.0323 55.9228C42.6774 53.9931 47.2312 50.5197 50.6936 45.5024C54.2312 40.408 56 34.6575 56 28.2509C56 23.002 54.7204 18.1778 52.1613 13.7781C49.6774 9.53277 46.2527 6.17508 41.8871 3.70503C37.5215 1.23498 32.7796 0 27.6613 0ZM10.9516 39.9449C10.801 40.0993 10.8387 40.2922 11.0645 40.5238C11.2903 40.7553 11.4785 40.794 11.629 40.6396C11.7796 40.4851 11.7419 40.2922 11.5161 40.0606C11.2903 39.8291 11.1022 39.7905 10.9516 39.9449ZM9.70968 39.0186C9.63444 39.173 9.70968 39.3273 9.93548 39.4817C10.2365 39.6361 10.4248 39.6361 10.5 39.4817C10.5752 39.2502 10.5 39.0958 10.2742 39.0186C10.0484 38.8642 9.86024 38.8642 9.70968 39.0186ZM13.4355 43.071C13.3602 43.1481 13.3226 43.2639 13.3226 43.4183C13.3226 43.5727 13.3978 43.7271 13.5484 43.8815C13.8494 44.1902 14.1129 44.2288 14.3387 43.9972C14.4139 43.9201 14.4139 43.8043 14.3387 43.6499C14.3387 43.4955 14.2635 43.3797 14.1129 43.3025C14.0377 43.1481 13.9248 43.071 13.7742 43.071C13.6236 42.9938 13.5107 42.9938 13.4355 43.071ZM12.0806 41.45C11.9301 41.5272 11.9301 41.7588 12.0806 42.1447C12.2312 42.2219 12.3441 42.2991 12.4194 42.3763C12.5699 42.4534 12.6828 42.4534 12.7581 42.3763C12.9839 42.2219 12.9839 41.9903 12.7581 41.6816C12.6828 41.5272 12.5699 41.45 12.4194 41.45C12.3441 41.3729 12.2312 41.3729 12.0806 41.45Z" fill="#E5E5E5"/>
</svg>
