<svg width="56" height="56" viewBox="0 0 56 56" fill="none" xmlns="http://www.w3.org/2000/svg">
<path d="M28 13.625C25.4167 13.625 23 14.2917 20.75 15.625C18.5833 16.875 16.8333 18.625 15.5 20.875C14.25 23.0417 13.625 25.4167 13.625 28C13.625 30.5833 14.25 33 15.5 35.25C16.8333 37.4167 18.5833 39.1667 20.75 40.5C23 41.75 25.4167 42.375 28 42.375C30.5833 42.375 32.9583 41.75 35.125 40.5C37.375 39.1667 39.125 37.4167 40.375 35.25C41.7083 33 42.375 30.5833 42.375 28C42.375 25.4167 41.7083 23.0417 40.375 20.875C39.125 18.625 37.375 16.875 35.125 15.625C32.9583 14.2917 30.5833 13.625 28 13.625ZM28 37.375C25.4167 37.375 23.2083 36.4583 21.375 34.625C19.5417 32.7917 18.625 30.5833 18.625 28C18.625 25.4167 19.5417 23.2083 21.375 21.375C23.2083 19.5417 25.4167 18.625 28 18.625C30.5833 18.625 32.7917 19.5417 34.625 21.375C36.4583 23.2083 37.375 25.4167 37.375 28C37.375 30.5833 36.4583 32.7917 34.625 34.625C32.7917 36.4583 30.5833 37.375 28 37.375ZM46.375 13C46.2917 13.9167 45.9167 14.7083 45.25 15.375C44.6667 16.0417 43.9167 16.375 43 16.375C42.0833 16.375 41.2917 16.0417 40.625 15.375C39.9583 14.7083 39.625 13.9167 39.625 13C39.625 12.0833 39.9583 11.2917 40.625 10.625C41.2917 9.9583 42.0833 9.625 43 9.625C43.9167 9.625 44.7083 9.9583 45.375 10.625C46.0417 11.2917 46.375 12.0833 46.375 13ZM55.875 16.375C55.7083 13.9583 55.3333 11.875 54.75 10.125C54 8.0417 52.8333 6.25 51.25 4.75C49.75 3.1667 47.9583 2 45.875 1.25C44.125 0.6667 42.0417 0.3333 39.625 0.25C37.2917 0.0833 33.4167 0 28 0C22.5833 0 18.6667 0.0833 16.25 0.25C13.9167 0.3333 11.875 0.6667 10.125 1.25C8.0417 2 6.2083 3.1667 4.625 4.75C3.125 6.25 2 8.0417 1.25 10.125C0.6667 11.875 0.2917 13.9583 0.125 16.375C0.0417 18.7083 0 22.5833 0 28C0 33.4167 0.0417 37.3333 0.125 39.75C0.2917 42.0833 0.6667 44.125 1.25 45.875C2 47.9583 3.125 49.7917 4.625 51.375C6.2083 52.875 8.0417 53.9583 10.125 54.625C11.875 55.2917 13.9167 55.6667 16.25 55.75C18.6667 55.9167 22.5833 56 28 56C33.4167 56 37.2917 55.9167 39.625 55.75C42.0417 55.6667 44.125 55.3333 45.875 54.75C47.9583 54 49.75 52.875 51.25 51.375C52.8333 49.7917 54 47.9583 54.75 45.875C55.3333 44.125 55.6667 42.0833 55.75 39.75C55.9167 37.3333 56 33.4167 56 28C56 22.5833 55.9583 18.7083 55.875 16.375ZM49.875 44.5C48.875 47 47.0833 48.7917 44.5 49.875C43.1667 50.375 40.9167 50.7083 37.75 50.875C36 50.9583 33.4167 51 30 51H26C22.6667 51 20.0833 50.9583 18.25 50.875C15.1667 50.7083 12.9167 50.375 11.5 49.875C9 48.875 7.2083 47.0833 6.125 44.5C5.625 43.0833 5.2917 40.8333 5.125 37.75C5.0417 35.9167 5 33.3333 5 30V26C5 22.6667 5.0417 20.0833 5.125 18.25C5.2917 15.0833 5.625 12.8333 6.125 11.5C7.125 8.9167 8.9167 7.125 11.5 6.125C12.9167 5.625 15.1667 5.2917 18.25 5.125C20.0833 5.0417 22.6667 5 26 5H30C33.3333 5 35.9167 5.0417 37.75 5.125C40.9167 5.2917 43.1667 5.625 44.5 6.125C47.0833 7.125 48.875 8.9167 49.875 11.5C50.375 12.8333 50.7083 15.0833 50.875 18.25C50.9583 20 51 22.5833 51 26V30C51 33.3333 50.9583 35.9167 50.875 37.75C50.7083 40.8333 50.375 43.0833 49.875 44.5Z" fill="#C5C5C5"/>
</svg>
