<svg width="176" height="155" viewBox="0 0 176 155" fill="none" xmlns="http://www.w3.org/2000/svg">
<path d="M224.371 94.373C222.548 93.9173 220.725 93.3477 218.902 92.6641L219.928 88.9043C221.979 78.6504 222.32 69.7637 220.953 62.2441C219.586 54.4967 216.624 49.3698 212.066 46.8633C207.509 44.1289 201.812 44.015 194.977 46.5215C188.141 48.8001 180.963 53.2435 173.443 59.8516L169 63.9531L166.266 61.2188C158.518 54.1549 150.999 49.3698 143.707 46.8633C136.415 44.3568 130.491 44.4707 125.934 47.2051C121.376 49.7116 118.414 54.4967 117.047 61.5605C115.68 68.6243 116.021 77.0553 118.072 86.8535L119.098 92.6641C117.047 93.3477 114.996 94.0312 112.945 94.7148C103.375 97.9049 95.7415 101.893 90.0449 106.678C84.3483 111.463 81.5 116.362 81.5 121.375C81.5 126.388 84.4622 131.401 90.3867 136.414C96.5391 141.427 104.514 145.643 114.312 149.061L119.098 150.428L117.73 156.58C115.908 166.15 115.68 174.467 117.047 181.531C118.414 188.595 121.376 193.38 125.934 195.887C130.491 198.621 136.301 198.735 143.365 196.229C150.657 193.722 158.062 189.165 165.582 182.557L169.342 179.139L173.785 183.582C181.305 189.734 188.368 193.95 194.977 196.229C201.812 198.507 207.509 198.393 212.066 195.887C216.624 193.38 219.586 188.367 220.953 180.848C222.548 173.328 222.32 164.669 220.27 154.871L219.244 150.086L222.32 149.061C232.574 145.87 240.777 141.769 246.93 136.756C253.31 131.743 256.5 126.616 256.5 121.375C256.5 116.134 253.538 111.235 247.613 106.678C241.689 101.893 233.941 97.791 224.371 94.373ZM178.229 65.3203C184.381 60.0794 190.191 56.3197 195.66 54.041C201.129 51.7624 205.344 51.5345 208.307 53.3574C211.269 54.9525 213.092 58.9401 213.775 65.3203C214.687 71.4727 214.231 78.8783 212.408 87.5371L211.725 90.9551C203.977 89.1322 196.344 87.8789 188.824 87.1953C184.267 80.8151 179.368 74.7767 174.127 69.0801L178.229 65.3203ZM133.795 129.92C135.618 133.338 137.213 136.414 138.58 139.148C140.631 142.566 142.454 145.415 144.049 147.693C138.58 147.238 133.339 146.44 128.326 145.301C129.693 140.516 131.516 135.389 133.795 129.92ZM133.795 112.83C131.744 107.817 129.921 102.804 128.326 97.791C133.111 96.6517 138.352 95.7402 144.049 95.0566C141.998 98.2467 140.175 101.209 138.58 103.943C136.757 107.133 135.162 110.096 133.795 112.83ZM137.555 121.375C139.833 117.046 142.34 112.374 145.074 107.361C147.353 103.26 150.087 98.9303 153.277 94.373C158.518 93.9173 163.759 93.6895 169 93.6895C174.241 93.6895 179.482 93.9173 184.723 94.373C187.685 98.4746 190.419 102.804 192.926 107.361C195.432 111.691 197.939 116.362 200.445 121.375C198.167 125.932 195.774 130.49 193.268 135.047C190.761 139.376 187.913 143.82 184.723 148.377C179.71 148.833 174.469 149.061 169 149.061C163.759 149.061 158.518 148.947 153.277 148.719C150.315 144.389 147.581 140.06 145.074 135.73C142.568 131.173 140.061 126.388 137.555 121.375ZM199.42 138.807C201.015 136.3 202.724 133.338 204.547 129.92C206.598 134.705 208.421 139.718 210.016 144.959C204.775 146.098 199.42 147.01 193.951 147.693C195.546 145.415 197.369 142.452 199.42 138.807ZM204.205 112.83C202.382 109.184 200.787 106.222 199.42 103.943C197.597 100.981 195.888 98.0189 194.293 95.0566C199.762 95.7402 204.889 96.6517 209.674 97.791C208.307 102.804 206.484 107.817 204.205 112.83ZM169 74.207C172.646 78.0807 176.064 82.1823 179.254 86.5117C172.418 86.2839 165.582 86.2839 158.746 86.5117C161.936 82.1823 165.354 78.0807 169 74.207ZM129.352 53.3574C132.314 51.5345 136.757 51.8763 142.682 54.3828C148.606 56.6615 154.872 60.763 161.48 66.6875L163.873 69.0801C158.632 74.7767 153.733 80.8151 149.176 87.1953C141.656 87.8789 134.023 89.0182 126.275 90.6133L125.25 85.4863C123.655 77.2832 123.199 70.3333 123.883 64.6367C124.794 58.7122 126.617 54.9525 129.352 53.3574ZM121.148 143.592C119.781 143.136 118.3 142.68 116.705 142.225C107.818 139.262 100.641 135.73 95.1719 131.629C91.526 129.122 89.4753 125.704 89.0195 121.375C89.0195 118.185 91.4121 114.767 96.1973 111.121C100.982 107.475 107.363 104.285 115.338 101.551L121.148 99.5C123.427 107.02 126.275 114.311 129.693 121.375C126.275 128.439 123.427 135.844 121.148 143.592ZM160.797 177.088C155.1 182.329 148.72 186.316 141.656 189.051C137.555 190.874 133.567 190.988 129.693 189.393C126.731 187.798 124.794 184.152 123.883 178.455C122.971 172.758 123.313 165.923 124.908 157.947L126.275 152.479C134.023 154.074 141.77 155.099 149.518 155.555C153.847 161.935 158.746 168.087 164.215 174.012L160.797 177.088ZM169.342 168.543C165.696 164.897 162.278 160.796 159.088 156.238C162.278 156.466 165.582 156.58 169 156.58C172.646 156.58 176.064 156.466 179.254 156.238C176.292 160.34 172.988 164.441 169.342 168.543ZM214.117 178.797C213.661 183.354 211.725 187 208.307 189.734C205.572 191.329 201.471 190.988 196.002 188.709C190.761 186.658 185.064 183.012 178.912 177.771L174.469 174.012C179.71 168.087 184.495 161.935 188.824 155.555C196.799 154.871 204.547 153.732 212.066 152.137L213.092 156.238C214.687 163.53 214.915 171.049 213.775 178.797H214.117ZM220.27 142.225C218.902 142.68 217.877 142.908 217.193 142.908C214.915 135.844 212.066 128.667 208.648 121.375C211.839 114.539 214.573 107.361 216.852 99.8418L221.979 101.209C229.954 103.943 236.448 107.247 241.461 111.121C246.474 114.767 248.98 118.185 248.98 121.375C248.98 124.565 246.246 128.097 240.777 131.971C235.536 135.844 228.701 139.262 220.27 142.225ZM169 105.652C173.329 105.652 176.975 107.247 179.938 110.438C183.128 113.4 184.723 117.046 184.723 121.375C184.723 125.704 183.128 129.464 179.938 132.654C176.975 135.617 173.329 137.098 169 137.098C164.671 137.098 160.911 135.617 157.721 132.654C154.758 129.464 153.277 125.704 153.277 121.375C153.277 117.046 154.758 113.4 157.721 110.438C160.911 107.247 164.671 105.652 169 105.652Z" transform="translate(-81 -44)" fill="black"/>
</svg>
