<svg width="64" height="56" viewBox="0 0 64 56" fill="none" xmlns="http://www.w3.org/2000/svg">
<path d="M57.375 14C57.4583 14.3589 57.5 14.9423 57.5 15.75C57.5 22.2115 56.0417 28.4488 53.125 34.4615C50.125 40.8334 45.9167 45.9038 40.5 49.6731C34.5833 53.8911 27.7917 56 20.125 56C12.7917 56 6.0833 53.8911 0 49.6731C0.9167 49.7628 1.9583 49.8077 3.125 49.8077C9.2083 49.8077 14.6667 47.7885 19.5 43.75C16.5833 43.75 14 42.8526 11.75 41.0577C9.5833 39.1731 8.0833 36.8397 7.25 34.0577C8.0833 34.1474 8.875 34.1923 9.625 34.1923C10.7917 34.1923 11.9583 34.0577 13.125 33.7885C10.125 33.0705 7.625 31.4103 5.625 28.8077C3.625 26.2051 2.625 23.2436 2.625 19.9231V19.6538C4.4583 20.8205 6.4167 21.4488 8.5 21.5385C6.75 20.1923 5.3333 18.4872 4.25 16.4231C3.1667 14.3589 2.625 12.1154 2.625 9.69231C2.625 7.17952 3.25 4.80125 4.5 2.55769C7.75 6.95509 11.7083 10.4551 16.375 13.0577C21.125 15.6603 26.1667 17.0962 31.5 17.3654C31.3333 16.2885 31.25 15.2115 31.25 14.1346C31.25 11.6218 31.8333 9.28846 33 7.13462C34.1667 4.89106 35.75 3.14106 37.75 1.88462C39.75 0.628169 41.9167 0 44.25 0C46.1667 0 47.9167 0.403846 49.5 1.21154C51.1667 2.01923 52.625 3.09615 53.875 4.44231C56.875 3.81414 59.6667 2.69231 62.25 1.07692C61.25 4.3974 59.3333 7 56.5 8.88461C59 8.52568 61.5 7.76278 64 6.59615C62.1667 9.46798 59.9583 11.9359 57.375 14Z" fill="#C5C5C5"/>
</svg>
